<svg width="189" height="54" viewBox="0 0 189 54" fill="none" xmlns="http://www.w3.org/2000/svg">
<mask id="mask0_3023_7184" style="mask-type:luminance" maskUnits="userSpaceOnUse" x="16" y="5" width="24" height="45">
<path d="M16.1621 5.40161H40V50H16.1621V5.40161Z" fill="white"/>
</mask>
<g mask="url(#mask0_3023_7184)">
<path d="M39.9221 25.1601C39.9221 14.271 30.9874 5.44275 19.9647 5.44275C18.7156 5.44275 17.4946 5.5573 16.3098 5.77386V10.286C17.481 10.0059 18.7047 9.85551 19.9647 9.85551C28.52 9.85551 35.4547 16.7087 35.4547 25.1601C35.4547 29.8423 33.3252 34.0322 29.972 36.8386V17.9955C29.972 16.7606 28.9593 15.7601 27.7093 15.7601C26.4602 15.7601 25.4475 16.7606 25.4475 17.9955V47.8012C25.4475 49.0361 26.4602 50.0366 27.7093 50.0366C28.9593 50.0366 29.972 49.0361 29.972 47.8012V42.2197C35.9203 38.8056 39.9221 32.4464 39.9221 25.1601Z" fill="#F28410"/>
</g>
<mask id="mask1_3023_7184" style="mask-type:luminance" maskUnits="userSpaceOnUse" x="0" y="0" width="24" height="46">
<path d="M0 0H23.3505V45.0351H0V0Z" fill="white"/>
</mask>
<g mask="url(#mask1_3023_7184)">
<path d="M9.52175 27.3957V32.068C9.52175 33.3021 10.5344 34.3026 11.7844 34.3026C13.0335 34.3026 14.0471 33.3021 14.0471 32.068V27.3957H23.1848V22.9248H14.0471V2.26147C14.0471 1.0274 13.0335 0.026001 11.7844 0.026001C10.5344 0.026001 9.52175 1.0274 9.52175 2.26147V8.35754C3.81432 11.828 0.00634766 18.0538 0.00634766 25.1602C0.00634766 36.0503 8.94204 44.8785 19.9647 44.8785C21.0607 44.8785 22.1359 44.789 23.1848 44.6217V40.1329C22.1458 40.3494 21.0688 40.4649 19.9647 40.4649C11.4094 40.4649 4.47374 33.6126 4.47374 25.1602C4.47374 20.6839 6.4203 16.6578 9.52175 13.8585V27.3957Z" fill="#6341AC"/>
</g>
<path d="M25.4475 22.9247H23.1848V27.3956H25.4475V22.9247Z" fill="#F28410"/>
<path d="M54.2955 35V11.7273H58.5114V21.5795H69.2955V11.7273H73.5227V35H69.2955V25.1136H58.5114V35H54.2955ZM85.6534 35.3409C83.9034 35.3409 82.392 34.9773 81.1193 34.25C79.8542 33.5152 78.8807 32.4773 78.1989 31.1364C77.517 29.7879 77.1761 28.2008 77.1761 26.375C77.1761 24.5795 77.517 23.0038 78.1989 21.6477C78.8883 20.2841 79.8504 19.2235 81.0852 18.4659C82.3201 17.7008 83.7708 17.3182 85.4375 17.3182C86.5133 17.3182 87.5284 17.4924 88.483 17.8409C89.4451 18.1818 90.2936 18.7121 91.0284 19.4318C91.7708 20.1515 92.3542 21.0682 92.7784 22.1818C93.2027 23.2879 93.4148 24.6061 93.4148 26.1364V27.3977H79.108V24.625H89.4716C89.464 23.8371 89.2936 23.1364 88.9602 22.5227C88.6269 21.9015 88.161 21.4129 87.5625 21.0568C86.9716 20.7008 86.2822 20.5227 85.4943 20.5227C84.6534 20.5227 83.9148 20.7273 83.2784 21.1364C82.642 21.5379 82.1458 22.0682 81.7898 22.7273C81.4413 23.3788 81.2633 24.0947 81.2557 24.875V27.2955C81.2557 28.3106 81.4413 29.1818 81.8125 29.9091C82.1837 30.6288 82.7027 31.1818 83.3693 31.5682C84.036 31.947 84.8163 32.1364 85.7102 32.1364C86.3087 32.1364 86.8504 32.053 87.3352 31.8864C87.8201 31.7121 88.2405 31.4583 88.5966 31.125C88.9527 30.7917 89.2216 30.3788 89.4034 29.8864L93.2443 30.3182C93.0019 31.3333 92.5398 32.2197 91.858 32.9773C91.1837 33.7273 90.3201 34.3106 89.267 34.7273C88.214 35.1364 87.0095 35.3409 85.6534 35.3409ZM100.645 29.5227L100.634 24.5568H101.293L107.565 17.5455H112.372L104.656 26.1364H103.804L100.645 29.5227ZM96.8949 35V11.7273H101.009V35H96.8949ZM107.849 35L102.168 27.0568L104.94 24.1591L112.77 35H107.849ZM122.009 35.3409C120.304 35.3409 118.827 34.9659 117.577 34.2159C116.327 33.4659 115.357 32.4167 114.668 31.0682C113.986 29.7197 113.645 28.1439 113.645 26.3409C113.645 24.5379 113.986 22.9583 114.668 21.6023C115.357 20.2462 116.327 19.1932 117.577 18.4432C118.827 17.6932 120.304 17.3182 122.009 17.3182C123.713 17.3182 125.19 17.6932 126.44 18.4432C127.69 19.1932 128.656 20.2462 129.338 21.6023C130.027 22.9583 130.372 24.5379 130.372 26.3409C130.372 28.1439 130.027 29.7197 129.338 31.0682C128.656 32.4167 127.69 33.4659 126.44 34.2159C125.19 34.9659 123.713 35.3409 122.009 35.3409ZM122.031 32.0455C122.955 32.0455 123.728 31.7917 124.349 31.2841C124.971 30.7689 125.433 30.0795 125.736 29.2159C126.046 28.3523 126.202 27.3902 126.202 26.3295C126.202 25.2614 126.046 24.2955 125.736 23.4318C125.433 22.5606 124.971 21.8674 124.349 21.3523C123.728 20.8371 122.955 20.5795 122.031 20.5795C121.084 20.5795 120.296 20.8371 119.668 21.3523C119.046 21.8674 118.58 22.5606 118.27 23.4318C117.967 24.2955 117.815 25.2614 117.815 26.3295C117.815 27.3902 117.967 28.3523 118.27 29.2159C118.58 30.0795 119.046 30.7689 119.668 31.2841C120.296 31.7917 121.084 32.0455 122.031 32.0455ZM134.045 35V11.7273H142.773C144.561 11.7273 146.061 12.0606 147.273 12.7273C148.492 13.3939 149.413 14.3106 150.034 15.4773C150.663 16.6364 150.977 17.9545 150.977 19.4318C150.977 20.9242 150.663 22.25 150.034 23.4091C149.405 24.5682 148.477 25.4811 147.25 26.1477C146.023 26.8068 144.511 27.1364 142.716 27.1364H136.932V23.6705H142.148C143.193 23.6705 144.049 23.4886 144.716 23.125C145.383 22.7614 145.875 22.2614 146.193 21.625C146.519 20.9886 146.682 20.2576 146.682 19.4318C146.682 18.6061 146.519 17.8788 146.193 17.25C145.875 16.6212 145.379 16.1326 144.705 15.7841C144.038 15.428 143.178 15.25 142.125 15.25H138.261V35H134.045ZM159.168 35.3523C158.062 35.3523 157.065 35.1553 156.179 34.7614C155.3 34.3598 154.603 33.7689 154.088 32.9886C153.58 32.2083 153.327 31.2462 153.327 30.1023C153.327 29.1174 153.509 28.303 153.872 27.6591C154.236 27.0152 154.732 26.5 155.361 26.1136C155.99 25.7273 156.698 25.4356 157.486 25.2386C158.281 25.0341 159.103 24.8864 159.952 24.7955C160.974 24.6894 161.804 24.5947 162.44 24.5114C163.077 24.4205 163.539 24.2841 163.827 24.1023C164.122 23.9129 164.27 23.6212 164.27 23.2273V23.1591C164.27 22.303 164.016 21.6402 163.509 21.1705C163.001 20.7008 162.27 20.4659 161.315 20.4659C160.308 20.4659 159.509 20.6856 158.918 21.125C158.334 21.5644 157.94 22.0833 157.736 22.6818L153.895 22.1364C154.198 21.0758 154.698 20.1894 155.395 19.4773C156.092 18.7576 156.944 18.2197 157.952 17.8636C158.959 17.5 160.073 17.3182 161.293 17.3182C162.134 17.3182 162.971 17.4167 163.804 17.6136C164.637 17.8106 165.399 18.1364 166.088 18.5909C166.777 19.0379 167.33 19.6477 167.747 20.4205C168.171 21.1932 168.384 22.1591 168.384 23.3182V35H164.429V32.6023H164.293C164.043 33.0871 163.69 33.5417 163.236 33.9659C162.789 34.3826 162.224 34.7197 161.543 34.9773C160.868 35.2273 160.077 35.3523 159.168 35.3523ZM160.236 32.3295C161.062 32.3295 161.777 32.1667 162.384 31.8409C162.99 31.5076 163.455 31.0682 163.781 30.5227C164.115 29.9773 164.281 29.3826 164.281 28.7386V26.6818C164.152 26.7879 163.933 26.8864 163.622 26.9773C163.319 27.0682 162.978 27.1477 162.599 27.2159C162.221 27.2841 161.846 27.3447 161.474 27.3977C161.103 27.4508 160.781 27.4962 160.509 27.5341C159.895 27.6174 159.346 27.7538 158.861 27.9432C158.376 28.1326 157.993 28.3977 157.713 28.7386C157.433 29.072 157.293 29.5038 157.293 30.0341C157.293 30.7917 157.569 31.3636 158.122 31.75C158.675 32.1364 159.38 32.3295 160.236 32.3295ZM174.452 41.5455C173.891 41.5455 173.372 41.5 172.895 41.4091C172.425 41.3258 172.05 41.2273 171.77 41.1136L172.724 37.9091C173.323 38.0833 173.857 38.1667 174.327 38.1591C174.796 38.1515 175.209 38.0038 175.565 37.7159C175.929 37.4356 176.236 36.9659 176.486 36.3068L176.838 35.3636L170.509 17.5455H174.872L178.895 30.7273H179.077L183.111 17.5455H187.486L180.497 37.1136C180.171 38.0379 179.74 38.8295 179.202 39.4886C178.664 40.1553 178.005 40.6629 177.224 41.0114C176.452 41.3674 175.527 41.5455 174.452 41.5455Z" fill="black"/>
</svg>
