<svg width="40" height="50" viewBox="0 0 40 50" fill="none" xmlns="http://www.w3.org/2000/svg">
<mask id="mask0_3009_5524" style="mask-type:luminance" maskUnits="userSpaceOnUse" x="16" y="5" width="24" height="45">
<path d="M16.1621 5.40161H40V50H16.1621V5.40161Z" fill="white"/>
</mask>
<g mask="url(#mask0_3009_5524)">
<path d="M39.9221 25.1601C39.9221 14.271 30.9873 5.44275 19.9646 5.44275C18.7156 5.44275 17.4945 5.5573 16.3098 5.77386V10.286C17.4809 10.0059 18.7047 9.85551 19.9646 9.85551C28.5199 9.85551 35.4547 16.7087 35.4547 25.1601C35.4547 29.8423 33.3252 34.0322 29.9719 36.8386V17.9955C29.9719 16.7606 28.9592 15.7601 27.7092 15.7601C26.4601 15.7601 25.4474 16.7606 25.4474 17.9955V47.8012C25.4474 49.0361 26.4601 50.0366 27.7092 50.0366C28.9592 50.0366 29.9719 49.0361 29.9719 47.8012V42.2197C35.9203 38.8056 39.9221 32.4464 39.9221 25.1601Z" fill="#F28410"/>
</g>
<mask id="mask1_3009_5524" style="mask-type:luminance" maskUnits="userSpaceOnUse" x="0" y="0" width="24" height="46">
<path d="M0 0H23.3505V45.0351H0V0Z" fill="white"/>
</mask>
<g mask="url(#mask1_3009_5524)">
<path d="M9.52175 27.3957V32.068C9.52175 33.3021 10.5344 34.3026 11.7844 34.3026C13.0335 34.3026 14.0471 33.3021 14.0471 32.068V27.3957H23.1848V22.9248H14.0471V2.26147C14.0471 1.0274 13.0335 0.026001 11.7844 0.026001C10.5344 0.026001 9.52175 1.0274 9.52175 2.26147V8.35754C3.81432 11.828 0.00634766 18.0538 0.00634766 25.1602C0.00634766 36.0503 8.94204 44.8785 19.9647 44.8785C21.0607 44.8785 22.1359 44.789 23.1848 44.6217V40.1329C22.1458 40.3494 21.0688 40.4649 19.9647 40.4649C11.4094 40.4649 4.47374 33.6126 4.47374 25.1602C4.47374 20.6839 6.4203 16.6578 9.52175 13.8585V27.3957Z" fill="#6341AC"/>
</g>
<path d="M25.4474 22.9247H23.1848V27.3956H25.4474V22.9247Z" fill="#F28410"/>
</svg>
